# xmcd
#
# Track frame offsets: 
#        182
#        13382
#        28637
#        40257
#        53732
#        66117
#        78717
#        91352
#        104912
#        115935
#        130185
#        144010
#        155482
#        166250
#        175900
#        187412
#        198822
#        209915
#
# Disc length: 2952 seconds
#
# Revision: 5
# Processed by: cddbd v1.5.2PL0 Copyright (c) Steve Scherf et al.
# Submitted via: ExactAudioCopy v1.0b6
#
DISCID=090b8612
DTITLE=Hillbilly Fever! - Vol. 3: Legends Of Nashville
DYEAR=1900
DGENRE=Country
TTITLE0="Little" Jimmy Dickens. - Hillbilly Fever (1950)
TTITLE1=Ernest Tubb - It's Been So Long Darling (1945)
TTITLE2=Eddy Arnold, The Tennessee Plowboy - Bouquet Of Roses (1947)
TTITLE3=Pee Wee King and His Golden West Cowboys - Tennessee Waltz (1947
TTITLE3=)
TTITLE4=Hank Williams and His Drifting Cowboys - Lovesick Blues (1948)
TTITLE5=George Morgan - Room Full Of Roses (1949)
TTITLE6=Red Foley - Chattanoogie Shoe Shine Bou (1949)
TTITLE7=Webb Pierce - Wondering (1951)
TTITLE8=The Carlisles - No Help Wanted (1952)
TTITLE9=Slim Whitman - Indian Love Call (1952)
TTITLE10=Red Foley, Ernest Tubb, and The Sunshine Trio - Goodnight Irene
TTITLE10=(1950)
TTITLE11=Kitty Wells - It Wasn't God Who Made Honky Tonk Angels (1952)
TTITLE12=Faron Young - If You Aint Lovin' (You Aint Livin') (1954)
TTITLE13=The Louvin Brothers - I Don't Believe You've Met My Baby) (19
TTITLE13=55)
TTITLE14=Ray Price - Crazy Arms) (1956)
TTITLE15=Sonny James, The Southern Gentleman - Young Love) (1956)
TTITLE16=Marty Robbins - Singing The Blues) (1955)
TTITLE17=Patsy Cline - Walkin' After Midnight) (1957)
EXTD=
EXTT0=
EXTT1=
EXTT2=
EXTT3=
EXTT4=
EXTT5=
EXTT6=
EXTT7=
EXTT8=
EXTT9=
EXTT10=
EXTT11=
EXTT12=
EXTT13=
EXTT14=
EXTT15=
EXTT16=
EXTT17=
PLAYORDER=
